<?xml version="1.0" encoding="UTF-8"?>
<svg xmlns="http://www.w3.org/2000/svg" xmlns:xlink="http://www.w3.org/1999/xlink" width="32pt" height="32pt" viewBox="0 0 32 32" version="1.1">
<g id="surface1">
<path style=" stroke:none;fill-rule:nonzero;fill:rgb(100%,100%,100%);fill-opacity:1;" d="M 29.332031 12 C 29.332031 14.210938 27.542969 16 25.332031 16 C 23.125 16 21.332031 14.210938 21.332031 12 C 21.332031 9.789062 23.125 8 25.332031 8 C 27.542969 8 29.332031 9.789062 29.332031 12 Z M 29.332031 12 "/>
<path style=" stroke:none;fill-rule:nonzero;fill:rgb(100%,100%,100%);fill-opacity:1;" d="M 10.667969 12 C 10.667969 14.210938 8.875 16 6.667969 16 C 4.457031 16 2.667969 14.210938 2.667969 12 C 2.667969 9.789062 4.457031 8 6.667969 8 C 8.875 8 10.667969 9.789062 10.667969 12 Z M 10.667969 12 "/>
<path style=" stroke:none;fill-rule:nonzero;fill:rgb(100%,100%,100%);fill-opacity:1;" d="M 21.332031 9.332031 C 21.332031 12.277344 18.945312 14.667969 16 14.667969 C 13.054688 14.667969 10.667969 12.277344 10.667969 9.332031 C 10.667969 6.386719 13.054688 4 16 4 C 18.945312 4 21.332031 6.386719 21.332031 9.332031 Z M 21.332031 9.332031 "/>
<path style=" stroke:none;fill-rule:nonzero;fill:rgb(100%,100%,100%);fill-opacity:1;" d="M 29.332031 17.332031 L 24.617188 17.332031 C 25.085938 18.144531 25.335938 19.0625 25.332031 20 L 25.332031 29.332031 L 30.667969 29.332031 C 31.402344 29.332031 32 28.738281 32 28 L 32 20 C 32 18.527344 30.804688 17.332031 29.332031 17.332031 Z M 29.332031 17.332031 "/>
<path style=" stroke:none;fill-rule:nonzero;fill:rgb(100%,100%,100%);fill-opacity:1;" d="M 7.382812 17.332031 L 2.667969 17.332031 C 1.195312 17.332031 0 18.527344 0 20 L 0 28 C 0 28.738281 0.597656 29.332031 1.332031 29.332031 L 6.667969 29.332031 L 6.667969 20 C 6.664062 19.0625 6.914062 18.144531 7.382812 17.332031 Z M 7.382812 17.332031 "/>
<path style=" stroke:none;fill-rule:nonzero;fill:rgb(100%,100%,100%);fill-opacity:1;" d="M 20 14.667969 L 18.667969 14.667969 L 16 22.667969 L 13.332031 14.667969 L 12 14.667969 C 9.789062 14.667969 8 16.457031 8 18.667969 L 8 30.667969 C 8 31.402344 8.597656 32 9.332031 32 L 22.667969 32 C 23.402344 32 24 31.402344 24 30.667969 L 24 18.667969 C 24 16.457031 22.210938 14.667969 20 14.667969 Z M 20 14.667969 "/>
</g>
</svg>
