<?xml version="1.0" encoding="UTF-8"?>
<svg xmlns="http://www.w3.org/2000/svg" xmlns:xlink="http://www.w3.org/1999/xlink" width="32pt" height="32pt" viewBox="0 0 32 32" version="1.1">
<g id="surface1">
<path style=" stroke:none;fill-rule:nonzero;fill:rgb(100%,100%,100%);fill-opacity:1;" d="M 31.5 15.054688 C 31.464844 15.03125 31.433594 15.011719 31.398438 14.996094 L 29.128906 13.769531 L 16.535156 20.4375 C 16.199219 20.617188 15.800781 20.617188 15.464844 20.4375 L 2.871094 13.769531 L 0.601562 14.996094 C 0.0507812 15.289062 -0.160156 15.972656 0.132812 16.523438 C 0.152344 16.558594 0.171875 16.589844 0.191406 16.625 L 16 24.992188 L 31.808594 16.625 C 32.15625 16.105469 32.019531 15.402344 31.5 15.054688 Z M 31.5 15.054688 "/>
<path style=" stroke:none;fill-rule:nonzero;fill:rgb(100%,100%,100%);fill-opacity:1;" d="M 31.863281 22.3125 C 31.757812 22.117188 31.59375 21.957031 31.398438 21.851562 L 29.128906 20.628906 L 16.535156 27.296875 C 16.199219 27.472656 15.800781 27.472656 15.464844 27.296875 L 2.871094 20.628906 L 0.601562 21.851562 C 0.046875 22.152344 -0.160156 22.84375 0.136719 23.398438 C 0.246094 23.597656 0.40625 23.757812 0.601562 23.863281 L 15.457031 31.863281 C 15.796875 32.046875 16.203125 32.046875 16.542969 31.863281 L 31.398438 23.863281 C 31.953125 23.5625 32.160156 22.871094 31.863281 22.3125 Z M 31.863281 22.3125 "/>
<path style=" stroke:none;fill-rule:nonzero;fill:rgb(100%,100%,100%);fill-opacity:1;" d="M 31.5 8.195312 C 31.464844 8.175781 31.433594 8.15625 31.398438 8.136719 L 16.542969 0.136719 C 16.203125 -0.046875 15.796875 -0.046875 15.457031 0.136719 L 0.601562 8.136719 C 0.0507812 8.429688 -0.160156 9.113281 0.132812 9.667969 C 0.152344 9.703125 0.171875 9.734375 0.191406 9.765625 L 16 18.136719 L 31.808594 9.765625 C 32.15625 9.246094 32.019531 8.546875 31.5 8.195312 Z M 31.5 8.195312 "/>
</g>
</svg>
