<?xml version="1.0" encoding="UTF-8"?>
<svg xmlns="http://www.w3.org/2000/svg" xmlns:xlink="http://www.w3.org/1999/xlink" width="32pt" height="32pt" viewBox="0 0 32 32" version="1.1">
<g id="surface1">
<path style=" stroke:none;fill-rule:nonzero;fill:rgb(100%,100%,100%);fill-opacity:1;" d="M 31.632812 15.113281 L 25.101562 8.613281 C 24.613281 8.128906 23.820312 8.128906 23.332031 8.617188 C 22.847656 9.109375 22.847656 9.898438 23.335938 10.386719 L 27.722656 14.75 L 1.25 14.75 C 0.558594 14.75 0 15.308594 0 16 C 0 16.691406 0.558594 17.25 1.25 17.25 L 27.722656 17.25 L 23.335938 21.613281 C 22.847656 22.101562 22.847656 22.890625 23.332031 23.382812 C 23.820312 23.871094 24.613281 23.871094 25.101562 23.386719 L 31.632812 16.886719 C 32.121094 16.394531 32.121094 15.601562 31.632812 15.113281 Z M 31.632812 15.113281 "/>
</g>
</svg>
