<?xml version="1.0" encoding="UTF-8"?>
<svg xmlns="http://www.w3.org/2000/svg" xmlns:xlink="http://www.w3.org/1999/xlink" width="32pt" height="32pt" viewBox="0 0 32 32" version="1.1">
<g id="surface1">
<path style=" stroke:none;fill-rule:nonzero;fill:rgb(100%,100%,100%);fill-opacity:1;" d="M 0.0625 31.0625 C 0.0625 31.582031 0.480469 32 1 32 L 31 32 C 31.519531 32 31.9375 31.582031 31.9375 31.0625 L 31.9375 28.125 L 0.0625 28.125 Z M 0.0625 31.0625 "/>
<path style=" stroke:none;fill-rule:nonzero;fill:rgb(100%,100%,100%);fill-opacity:1;" d="M 7.25 18.4375 C 7.25 19.816406 6.128906 20.9375 4.75 20.9375 C 3.371094 20.9375 2.25 19.816406 2.25 18.4375 C 2.25 17.058594 3.371094 15.9375 4.75 15.9375 C 6.128906 15.9375 7.25 17.058594 7.25 18.4375 Z M 7.25 18.4375 "/>
<path style=" stroke:none;fill-rule:nonzero;fill:rgb(100%,100%,100%);fill-opacity:1;" d="M 18.5 18.4375 C 18.5 19.816406 17.378906 20.9375 16 20.9375 C 14.621094 20.9375 13.5 19.816406 13.5 18.4375 C 13.5 17.058594 14.621094 15.9375 16 15.9375 C 17.378906 15.9375 18.5 17.058594 18.5 18.4375 Z M 18.5 18.4375 "/>
<path style=" stroke:none;fill-rule:nonzero;fill:rgb(100%,100%,100%);fill-opacity:1;" d="M 29.75 18.4375 C 29.75 19.816406 28.628906 20.9375 27.25 20.9375 C 25.871094 20.9375 24.75 19.816406 24.75 18.4375 C 24.75 17.058594 25.871094 15.9375 27.25 15.9375 C 28.628906 15.9375 29.75 17.058594 29.75 18.4375 Z M 29.75 18.4375 "/>
<path style=" stroke:none;fill-rule:nonzero;fill:rgb(100%,100%,100%);fill-opacity:1;" d="M 0.0625 26.25 L 9.4375 26.25 C 9.4375 24.496094 8.472656 22.964844 7.042969 22.160156 C 6.375 22.574219 5.589844 22.8125 4.75 22.8125 C 3.910156 22.8125 3.125 22.574219 2.457031 22.160156 C 1.027344 22.964844 0.0625 24.496094 0.0625 26.25 Z M 0.0625 26.25 "/>
<path style=" stroke:none;fill-rule:nonzero;fill:rgb(100%,100%,100%);fill-opacity:1;" d="M 11.3125 26.25 L 20.6875 26.25 C 20.6875 24.496094 19.722656 22.964844 18.292969 22.160156 C 17.625 22.574219 16.839844 22.8125 16 22.8125 C 15.160156 22.8125 14.375 22.574219 13.707031 22.160156 C 12.277344 22.964844 11.3125 24.496094 11.3125 26.25 Z M 11.3125 26.25 "/>
<path style=" stroke:none;fill-rule:nonzero;fill:rgb(100%,100%,100%);fill-opacity:1;" d="M 29.542969 22.160156 C 28.875 22.574219 28.089844 22.8125 27.25 22.8125 C 26.410156 22.8125 25.625 22.574219 24.957031 22.160156 C 23.527344 22.964844 22.5625 24.496094 22.5625 26.25 L 31.9375 26.25 C 31.9375 24.496094 30.972656 22.964844 29.542969 22.160156 Z M 29.542969 22.160156 "/>
<path style=" stroke:none;fill-rule:nonzero;fill:rgb(100%,100%,100%);fill-opacity:1;" d="M 7.25 2.5 C 7.25 3.878906 6.128906 5 4.75 5 C 3.371094 5 2.25 3.878906 2.25 2.5 C 2.25 1.121094 3.371094 0 4.75 0 C 6.128906 0 7.25 1.121094 7.25 2.5 Z M 7.25 2.5 "/>
<path style=" stroke:none;fill-rule:nonzero;fill:rgb(100%,100%,100%);fill-opacity:1;" d="M 18.5 2.5 C 18.5 3.878906 17.378906 5 16 5 C 14.621094 5 13.5 3.878906 13.5 2.5 C 13.5 1.121094 14.621094 0 16 0 C 17.378906 0 18.5 1.121094 18.5 2.5 Z M 18.5 2.5 "/>
<path style=" stroke:none;fill-rule:nonzero;fill:rgb(100%,100%,100%);fill-opacity:1;" d="M 29.75 2.5 C 29.75 3.878906 28.628906 5 27.25 5 C 25.871094 5 24.75 3.878906 24.75 2.5 C 24.75 1.121094 25.871094 0 27.25 0 C 28.628906 0 29.75 1.121094 29.75 2.5 Z M 29.75 2.5 "/>
<path style=" stroke:none;fill-rule:nonzero;fill:rgb(100%,100%,100%);fill-opacity:1;" d="M 7.042969 6.222656 C 6.375 6.636719 5.589844 6.875 4.75 6.875 C 3.910156 6.875 3.125 6.636719 2.457031 6.222656 C 1.027344 7.027344 0.0625 8.558594 0.0625 10.3125 L 9.4375 10.3125 C 9.4375 8.558594 8.472656 7.027344 7.042969 6.222656 Z M 7.042969 6.222656 "/>
<path style=" stroke:none;fill-rule:nonzero;fill:rgb(100%,100%,100%);fill-opacity:1;" d="M 18.292969 6.222656 C 17.625 6.636719 16.839844 6.875 16 6.875 C 15.160156 6.875 14.375 6.636719 13.707031 6.222656 C 12.277344 7.027344 11.3125 8.558594 11.3125 10.3125 L 20.6875 10.3125 C 20.6875 8.558594 19.722656 7.027344 18.292969 6.222656 Z M 18.292969 6.222656 "/>
<path style=" stroke:none;fill-rule:nonzero;fill:rgb(100%,100%,100%);fill-opacity:1;" d="M 0.0625 18.425781 C 0.0625 18.605469 0.207031 18.75 0.386719 18.75 C 0.378906 18.648438 0.375 18.542969 0.375 18.4375 C 0.375 16.023438 2.335938 14.0625 4.75 14.0625 C 7.164062 14.0625 9.125 16.023438 9.125 18.4375 C 9.125 18.542969 9.121094 18.648438 9.113281 18.75 L 11.636719 18.75 C 11.628906 18.648438 11.625 18.542969 11.625 18.4375 C 11.625 16.023438 13.585938 14.0625 16 14.0625 C 18.414062 14.0625 20.375 16.023438 20.375 18.4375 C 20.375 18.542969 20.371094 18.648438 20.363281 18.75 L 22.886719 18.75 C 22.878906 18.648438 22.875 18.542969 22.875 18.4375 C 22.875 16.023438 24.835938 14.0625 27.25 14.0625 C 29.664062 14.0625 31.625 16.023438 31.625 18.4375 C 31.625 18.542969 31.621094 18.648438 31.613281 18.75 C 31.792969 18.75 31.9375 18.605469 31.9375 18.425781 L 31.9375 12.1875 L 0.0625 12.1875 Z M 0.0625 18.425781 "/>
<path style=" stroke:none;fill-rule:nonzero;fill:rgb(100%,100%,100%);fill-opacity:1;" d="M 29.542969 6.222656 C 28.875 6.636719 28.089844 6.875 27.25 6.875 C 26.410156 6.875 25.625 6.636719 24.957031 6.222656 C 23.527344 7.027344 22.5625 8.558594 22.5625 10.3125 L 31.9375 10.3125 C 31.9375 8.558594 30.972656 7.027344 29.542969 6.222656 Z M 29.542969 6.222656 "/>
</g>
</svg>
