<?xml version="1.0" encoding="UTF-8"?>
<svg xmlns="http://www.w3.org/2000/svg" xmlns:xlink="http://www.w3.org/1999/xlink" width="31pt" height="30pt" viewBox="0 0 31 30" version="1.1">
<g id="surface1">
<path style=" stroke:none;fill-rule:nonzero;fill:rgb(100%,100%,100%);fill-opacity:1;" d="M 30.480469 13.328125 L 16.570312 0.433594 C 15.960938 -0.132812 15.039062 -0.132812 14.429688 0.433594 L 0.519531 13.328125 C 0.03125 13.785156 -0.128906 14.480469 0.109375 15.109375 C 0.34375 15.734375 0.933594 16.144531 1.59375 16.144531 L 3.8125 16.144531 L 3.8125 29.0625 C 3.8125 29.570312 4.21875 29.992188 4.730469 29.992188 L 12.351562 29.992188 C 12.855469 29.992188 13.265625 29.578125 13.265625 29.0625 L 13.265625 21.21875 L 17.746094 21.21875 L 17.746094 29.0625 C 17.746094 29.570312 18.152344 29.992188 18.660156 29.992188 L 26.277344 29.992188 C 26.78125 29.992188 27.191406 29.578125 27.191406 29.0625 L 27.191406 16.144531 L 29.414062 16.144531 C 30.074219 16.144531 30.65625 15.734375 30.898438 15.109375 C 31.128906 14.480469 30.96875 13.785156 30.480469 13.328125 Z M 30.480469 13.328125 "/>
<path style=" stroke:none;fill-rule:nonzero;fill:rgb(100%,100%,100%);fill-opacity:1;" d="M 26.949219 1.863281 L 20.828125 1.863281 L 27.863281 8.367188 L 27.863281 2.789062 C 27.859375 2.277344 27.453125 1.863281 26.949219 1.863281 Z M 26.949219 1.863281 "/>
</g>
</svg>
