<?xml version="1.0" encoding="UTF-8"?>
<svg xmlns="http://www.w3.org/2000/svg" xmlns:xlink="http://www.w3.org/1999/xlink" width="32pt" height="32pt" viewBox="0 0 32 32" version="1.1">
<g id="surface1">
<path style=" stroke:none;fill-rule:nonzero;fill:rgb(60.784314%,60.784314%,60.784314%);fill-opacity:1;" d="M 21.269531 2.503906 L 21.269531 6.5625 C 24.964844 8.46875 27.5 12.324219 27.5 16.773438 C 27.5 23.121094 22.351562 28.269531 16.003906 28.269531 C 9.652344 28.269531 4.503906 23.121094 4.503906 16.773438 C 4.503906 12.691406 6.640625 9.113281 9.84375 7.074219 L 9.84375 2.855469 C 4.507812 5.222656 0.777344 10.558594 0.777344 16.773438 C 0.777344 25.183594 7.589844 32 16 32 C 24.410156 32 31.226562 25.183594 31.226562 16.773438 C 31.222656 10.21875 27.070312 4.648438 21.269531 2.503906 Z M 21.269531 2.503906 "/>
<path style=" stroke:none;fill-rule:nonzero;fill:rgb(60.784314%,60.784314%,60.784314%);fill-opacity:1;" d="M 15.707031 18.738281 C 17.378906 18.738281 17.550781 17.75 17.550781 16.535156 L 17.550781 2.207031 C 17.550781 0.988281 17.378906 0 15.707031 0 C 14.039062 0 13.867188 0.988281 13.867188 2.207031 L 13.867188 16.535156 C 13.867188 17.753906 14.039062 18.738281 15.707031 18.738281 Z M 15.707031 18.738281 "/>
</g>
</svg>
