<?xml version="1.0" encoding="UTF-8"?>
<svg xmlns="http://www.w3.org/2000/svg" xmlns:xlink="http://www.w3.org/1999/xlink" width="32pt" height="32pt" viewBox="0 0 32 32" version="1.1">
<g id="surface1">
<path style=" stroke:none;fill-rule:nonzero;fill:rgb(60.784314%,60.784314%,60.784314%);fill-opacity:1;" d="M 16 0 C 11.347656 0 7.5625 3.785156 7.5625 8.4375 C 7.5625 13.089844 11.347656 16.875 16 16.875 C 20.652344 16.875 24.4375 13.089844 24.4375 8.4375 C 24.4375 3.785156 20.652344 0 16 0 Z M 16 0 "/>
<path style=" stroke:none;fill-rule:nonzero;fill:rgb(60.784314%,60.784314%,60.784314%);fill-opacity:1;" d="M 26.496094 22.386719 C 24.1875 20.042969 21.125 18.75 17.875 18.75 L 14.125 18.75 C 10.875 18.75 7.8125 20.042969 5.503906 22.386719 C 3.203125 24.722656 1.9375 27.800781 1.9375 31.0625 C 1.9375 31.582031 2.355469 32 2.875 32 L 29.125 32 C 29.644531 32 30.0625 31.582031 30.0625 31.0625 C 30.0625 27.800781 28.796875 24.722656 26.496094 22.386719 Z M 26.496094 22.386719 "/>
</g>
</svg>
