<?xml version="1.0" encoding="UTF-8"?>
<svg xmlns="http://www.w3.org/2000/svg" xmlns:xlink="http://www.w3.org/1999/xlink" width="32pt" height="32pt" viewBox="0 0 32 32" version="1.1">
<g id="surface1">
<path style=" stroke:none;fill-rule:nonzero;fill:rgb(100%,100%,100%);fill-opacity:1;" d="M 30.855469 8 L 25.144531 8 L 25.144531 1.144531 C 25.144531 0.511719 24.632812 0 24 0 L 1.144531 0 C 0.511719 0 0 0.511719 0 1.144531 L 0 27.429688 C 0 29.953125 2.046875 32 4.570312 32 L 27.429688 32 C 29.953125 32 32 29.953125 32 27.429688 L 32 9.144531 C 32 8.511719 31.488281 8 30.855469 8 Z M 9.144531 5.714844 L 16 5.714844 C 16.632812 5.714844 17.144531 6.226562 17.144531 6.855469 C 17.144531 7.488281 16.632812 8 16 8 L 9.144531 8 C 8.511719 8 8 7.488281 8 6.855469 C 8 6.226562 8.511719 5.714844 9.144531 5.714844 Z M 19.429688 27.429688 L 5.714844 27.429688 C 5.082031 27.429688 4.570312 26.917969 4.570312 26.285156 C 4.570312 25.65625 5.082031 25.144531 5.714844 25.144531 L 19.429688 25.144531 C 20.058594 25.144531 20.570312 25.65625 20.570312 26.285156 C 20.570312 26.917969 20.058594 27.429688 19.429688 27.429688 Z M 19.429688 22.855469 L 5.714844 22.855469 C 5.082031 22.855469 4.570312 22.34375 4.570312 21.714844 C 4.570312 21.082031 5.082031 20.570312 5.714844 20.570312 L 19.429688 20.570312 C 20.058594 20.570312 20.570312 21.082031 20.570312 21.714844 C 20.570312 22.34375 20.058594 22.855469 19.429688 22.855469 Z M 19.429688 18.285156 L 5.714844 18.285156 C 5.082031 18.285156 4.570312 17.773438 4.570312 17.144531 C 4.570312 16.511719 5.082031 16 5.714844 16 L 19.429688 16 C 20.058594 16 20.570312 16.511719 20.570312 17.144531 C 20.570312 17.773438 20.058594 18.285156 19.429688 18.285156 Z M 19.429688 13.714844 L 5.714844 13.714844 C 5.082031 13.714844 4.570312 13.203125 4.570312 12.570312 C 4.570312 11.941406 5.082031 11.429688 5.714844 11.429688 L 19.429688 11.429688 C 20.058594 11.429688 20.570312 11.941406 20.570312 12.570312 C 20.570312 13.203125 20.058594 13.714844 19.429688 13.714844 Z M 29.714844 27.429688 C 29.714844 28.691406 28.691406 29.714844 27.429688 29.714844 C 26.167969 29.714844 25.144531 28.691406 25.144531 27.429688 L 25.144531 10.285156 L 29.714844 10.285156 Z M 29.714844 27.429688 "/>
</g>
</svg>
