<?xml version="1.0" encoding="UTF-8"?>
<svg xmlns="http://www.w3.org/2000/svg" xmlns:xlink="http://www.w3.org/1999/xlink" width="32pt" height="32pt" viewBox="0 0 32 32" version="1.1">
<g id="surface1">
<path style=" stroke:none;fill-rule:nonzero;fill:rgb(100%,100%,100%);fill-opacity:1;" d="M 6.109375 10.421875 C 6.183594 10.875 6.359375 11.164062 6.535156 11.34375 C 6.945312 14.089844 9.238281 16.636719 11.339844 16.636719 C 13.785156 16.636719 16.011719 13.878906 16.4375 11.351562 C 16.617188 11.171875 16.792969 10.882812 16.871094 10.421875 C 17.007812 9.90625 17.1875 9.011719 16.875 8.59375 C 16.859375 8.574219 16.839844 8.550781 16.824219 8.535156 C 17.121094 7.457031 17.492188 5.222656 16.15625 3.707031 C 16.039062 3.554688 15.289062 2.660156 13.6875 2.1875 L 12.921875 1.921875 C 11.664062 1.535156 10.871094 1.445312 10.835938 1.441406 C 10.78125 1.4375 10.71875 1.441406 10.664062 1.457031 C 10.621094 1.46875 10.472656 1.507812 10.355469 1.492188 C 10.054688 1.449219 9.601562 1.605469 9.519531 1.636719 C 9.417969 1.679688 6.976562 2.65625 6.234375 4.929688 C 6.167969 5.113281 5.871094 6.078125 6.265625 8.449219 C 6.207031 8.488281 6.152344 8.539062 6.109375 8.597656 C 5.789062 9.011719 5.96875 9.90625 6.109375 10.421875 Z M 6.109375 10.421875 "/>
<path style=" stroke:none;fill-rule:nonzero;fill:rgb(100%,100%,100%);fill-opacity:1;" d="M 15.875 27.722656 C 15.421875 27.46875 14.933594 27.226562 14.410156 26.996094 C 14.160156 26.882812 13.902344 26.777344 13.648438 26.675781 C 13.445312 26.601562 13.210938 26.503906 13.046875 26.460938 L 10.625 25.808594 L 15.152344 16.59375 L 17.089844 17.820312 C 17.5 18.074219 17.800781 18.292969 18.132812 18.535156 L 18.203125 18.585938 C 18.53125 18.832031 18.851562 19.078125 19.167969 19.335938 C 19.855469 19.890625 20.464844 20.433594 21.027344 20.992188 C 21.070312 21.035156 21.113281 21.074219 21.15625 21.117188 C 21.34375 20.910156 21.53125 20.722656 21.714844 20.519531 C 21.480469 19.816406 21.191406 19.164062 20.839844 18.644531 C 20.839844 18.644531 20.34375 17.964844 19.164062 17.511719 C 19.164062 17.511719 19.0625 17.480469 18.910156 17.429688 C 17.859375 16.9375 16.863281 16.621094 16.863281 16.621094 C 16.648438 16.542969 16.460938 16.46875 16.292969 16.394531 C 15.578125 16.042969 14.984375 15.644531 14.863281 15.269531 C 14.863281 15.269531 15.273438 19.257812 11.789062 19.351562 L 11.304688 19.328125 C 8.144531 19.046875 7.933594 15.261719 7.933594 15.261719 C 7.605469 16.300781 3.632812 17.507812 3.632812 17.507812 C 2.453125 17.960938 1.953125 18.640625 1.953125 18.640625 C 0.207031 21.230469 0 26.992188 0 26.992188 C 0.0234375 28.3125 0.589844 28.449219 0.589844 28.449219 C 4.605469 30.238281 10.90625 30.554688 10.90625 30.554688 C 11.246094 30.5625 11.5625 30.546875 11.878906 30.527344 L 11.886719 30.558594 C 11.886719 30.558594 14.960938 30.402344 18.1875 29.699219 L 17.792969 29.183594 C 17.472656 28.757812 16.757812 28.214844 15.875 27.722656 Z M 15.875 27.722656 "/>
<path style=" stroke:none;fill-rule:nonzero;fill:rgb(100%,100%,100%);fill-opacity:1;" d="M 14.726562 15.4375 C 14.769531 15.382812 14.816406 15.328125 14.863281 15.269531 C 14.851562 15.230469 14.851562 15.210938 14.851562 15.210938 C 14.8125 15.292969 14.765625 15.359375 14.726562 15.4375 Z M 14.726562 15.4375 "/>
<path style=" stroke:none;fill-rule:nonzero;fill:rgb(100%,100%,100%);fill-opacity:1;" d="M 7.953125 15.253906 L 7.941406 15.210938 L 7.933594 15.257812 C 7.9375 15.25 7.945312 15.242188 7.945312 15.234375 C 7.949219 15.234375 7.949219 15.242188 7.953125 15.253906 Z M 7.953125 15.253906 "/>
<path style=" stroke:none;fill-rule:nonzero;fill:rgb(100%,100%,100%);fill-opacity:1;" d="M 28.308594 17.105469 C 27.164062 17.914062 26.097656 18.828125 25.082031 19.785156 C 24.066406 20.753906 23.101562 21.769531 22.171875 22.820312 C 21.828125 23.210938 21.492188 23.609375 21.160156 24.007812 C 21.15625 24 21.152344 23.992188 21.152344 23.988281 C 20.660156 23.335938 20.132812 22.753906 19.582031 22.210938 C 19.03125 21.667969 18.460938 21.164062 17.871094 20.6875 C 17.578125 20.453125 17.277344 20.21875 16.976562 19.992188 C 16.660156 19.761719 16.382812 19.554688 15.992188 19.3125 L 13.582031 24.214844 C 13.804688 24.273438 14.125 24.398438 14.394531 24.503906 C 14.683594 24.617188 14.964844 24.734375 15.246094 24.859375 C 15.808594 25.105469 16.355469 25.378906 16.882812 25.671875 C 17.917969 26.25 18.882812 26.953125 19.433594 27.675781 L 21.285156 30.105469 L 22.351562 27.792969 C 22.886719 26.632812 23.53125 25.421875 24.191406 24.269531 C 24.855469 23.105469 25.5625 21.96875 26.332031 20.867188 C 27.101562 19.769531 27.925781 18.707031 28.847656 17.726562 C 29.769531 16.753906 30.785156 15.847656 32 15.207031 C 30.683594 15.597656 29.449219 16.304688 28.308594 17.105469 Z M 28.308594 17.105469 "/>
</g>
</svg>
