<?xml version="1.0" encoding="UTF-8"?>
<svg xmlns="http://www.w3.org/2000/svg" xmlns:xlink="http://www.w3.org/1999/xlink" width="32pt" height="32pt" viewBox="0 0 32 32" version="1.1">
<g id="surface1">
<path style=" stroke:none;fill-rule:nonzero;fill:rgb(100%,100%,100%);fill-opacity:1;" d="M 0 11.515625 L 0 30.3125 C 0 30.828125 0.417969 31.25 0.9375 31.25 L 31.0625 31.25 C 31.582031 31.25 32 30.828125 32 30.3125 L 32 11.480469 C 31.921875 11.503906 0 11.515625 0 11.515625 Z M 21.496094 15.9375 C 21.496094 15.417969 21.917969 15 22.433594 15 L 25.921875 15 C 26.441406 15 26.859375 15.417969 26.859375 15.9375 L 26.859375 19.425781 C 26.859375 19.941406 26.441406 20.363281 25.921875 20.363281 L 22.433594 20.363281 C 21.917969 20.363281 21.496094 19.941406 21.496094 19.425781 Z M 21.496094 23.339844 C 21.496094 22.824219 21.917969 22.402344 22.433594 22.402344 L 25.921875 22.402344 C 26.441406 22.402344 26.859375 22.824219 26.859375 23.339844 L 26.859375 26.828125 C 26.859375 27.347656 26.441406 27.765625 25.921875 27.765625 L 22.433594 27.765625 C 21.917969 27.765625 21.496094 27.347656 21.496094 26.828125 Z M 13.316406 15.9375 C 13.316406 15.417969 13.738281 15 14.253906 15 L 17.746094 15 C 18.261719 15 18.683594 15.417969 18.683594 15.9375 L 18.683594 19.425781 C 18.683594 19.941406 18.261719 20.363281 17.746094 20.363281 L 14.253906 20.363281 C 13.738281 20.363281 13.316406 19.941406 13.316406 19.425781 Z M 13.316406 23.339844 C 13.316406 22.824219 13.738281 22.402344 14.253906 22.402344 L 17.746094 22.402344 C 18.261719 22.402344 18.683594 22.824219 18.683594 23.339844 L 18.683594 26.828125 C 18.683594 27.347656 18.261719 27.765625 17.746094 27.765625 L 14.253906 27.765625 C 13.738281 27.765625 13.316406 27.347656 13.316406 26.828125 Z M 5.140625 15.9375 C 5.140625 15.417969 5.558594 15 6.078125 15 L 9.566406 15 C 10.082031 15 10.503906 15.417969 10.503906 15.9375 L 10.503906 19.425781 C 10.503906 19.941406 10.082031 20.363281 9.566406 20.363281 L 6.078125 20.363281 C 5.558594 20.363281 5.140625 19.941406 5.140625 19.425781 Z M 5.140625 23.339844 C 5.140625 22.824219 5.558594 22.402344 6.078125 22.402344 L 9.566406 22.402344 C 10.082031 22.402344 10.503906 22.824219 10.503906 23.339844 L 10.503906 26.828125 C 10.503906 27.347656 10.082031 27.765625 9.566406 27.765625 L 6.078125 27.765625 C 5.558594 27.765625 5.140625 27.347656 5.140625 26.828125 Z M 5.140625 23.339844 "/>
<path style=" stroke:none;fill-rule:nonzero;fill:rgb(100%,100%,100%);fill-opacity:1;" d="M 32 9.675781 L 32 3.84375 C 32 3.324219 31.582031 2.90625 31.0625 2.90625 L 24.089844 2.90625 L 24.089844 6.027344 C 24.089844 6.542969 23.671875 6.964844 23.152344 6.964844 C 22.636719 6.964844 22.214844 6.542969 22.214844 6.027344 L 22.214844 2.90625 L 9.785156 2.90625 L 9.785156 6.027344 C 9.785156 6.542969 9.363281 6.964844 8.847656 6.964844 C 8.328125 6.964844 7.910156 6.542969 7.910156 6.027344 L 7.910156 2.90625 L 0.9375 2.90625 C 0.417969 2.90625 0 3.324219 0 3.84375 L 0 9.640625 C 0 9.640625 31.921875 9.652344 32 9.675781 Z M 32 9.675781 "/>
<path style=" stroke:none;fill-rule:nonzero;fill:rgb(100%,100%,100%);fill-opacity:1;" d="M 9.785156 2.90625 L 9.785156 1.6875 C 9.785156 1.171875 9.363281 0.75 8.847656 0.75 C 8.328125 0.75 7.910156 1.171875 7.910156 1.6875 L 7.910156 2.90625 Z M 9.785156 2.90625 "/>
<path style=" stroke:none;fill-rule:nonzero;fill:rgb(100%,100%,100%);fill-opacity:1;" d="M 24.089844 2.90625 L 24.089844 1.6875 C 24.089844 1.171875 23.671875 0.75 23.152344 0.75 C 22.636719 0.75 22.214844 1.171875 22.214844 1.6875 L 22.214844 2.90625 Z M 24.089844 2.90625 "/>
<path style=" stroke:none;fill-rule:nonzero;fill:rgb(100%,100%,100%);fill-opacity:1;" d="M 7.015625 16.875 L 8.628906 16.875 L 8.628906 18.488281 L 7.015625 18.488281 Z M 7.015625 16.875 "/>
<path style=" stroke:none;fill-rule:nonzero;fill:rgb(100%,100%,100%);fill-opacity:1;" d="M 15.191406 16.875 L 16.808594 16.875 L 16.808594 18.488281 L 15.191406 18.488281 Z M 15.191406 16.875 "/>
<path style=" stroke:none;fill-rule:nonzero;fill:rgb(100%,100%,100%);fill-opacity:1;" d="M 23.371094 16.875 L 24.984375 16.875 L 24.984375 18.488281 L 23.371094 18.488281 Z M 23.371094 16.875 "/>
<path style=" stroke:none;fill-rule:nonzero;fill:rgb(100%,100%,100%);fill-opacity:1;" d="M 7.015625 24.277344 L 8.628906 24.277344 L 8.628906 25.890625 L 7.015625 25.890625 Z M 7.015625 24.277344 "/>
<path style=" stroke:none;fill-rule:nonzero;fill:rgb(100%,100%,100%);fill-opacity:1;" d="M 15.191406 24.277344 L 16.808594 24.277344 L 16.808594 25.890625 L 15.191406 25.890625 Z M 15.191406 24.277344 "/>
<path style=" stroke:none;fill-rule:nonzero;fill:rgb(100%,100%,100%);fill-opacity:1;" d="M 23.371094 24.277344 L 24.984375 24.277344 L 24.984375 25.890625 L 23.371094 25.890625 Z M 23.371094 24.277344 "/>
</g>
</svg>
