<?xml version="1.0" encoding="UTF-8"?>
<svg xmlns="http://www.w3.org/2000/svg" xmlns:xlink="http://www.w3.org/1999/xlink" width="32pt" height="32pt" viewBox="0 0 32 32" version="1.1">
<g id="surface1">
<path style=" stroke:none;fill-rule:nonzero;fill:rgb(100%,100%,100%);fill-opacity:1;" d="M 31.84375 17.058594 L 29.957031 14.085938 L 31.078125 10.746094 C 31.226562 10.289062 31.039062 9.789062 30.621094 9.550781 L 27.570312 7.792969 L 27.011719 4.316406 C 26.929688 3.839844 26.53125 3.488281 26.050781 3.46875 L 22.53125 3.332031 L 20.421875 0.511719 C 20.132812 0.125 19.609375 0 19.179688 0.207031 L 16 1.71875 L 12.820312 0.203125 C 12.386719 0 11.867188 0.128906 11.578125 0.511719 L 9.464844 3.332031 L 5.945312 3.46875 C 5.46875 3.488281 5.066406 3.839844 4.988281 4.316406 L 4.429688 7.792969 L 1.378906 9.550781 C 0.960938 9.789062 0.769531 10.289062 0.921875 10.746094 L 2.042969 14.085938 L 0.15625 17.058594 C -0.101562 17.464844 -0.0351562 17.996094 0.3125 18.328125 L 2.851562 20.765625 L 2.566406 24.277344 C 2.527344 24.757812 2.832031 25.195312 3.292969 25.328125 L 6.675781 26.304688 L 8.054688 29.546875 C 8.242188 29.984375 8.714844 30.242188 9.183594 30.140625 L 12.636719 29.433594 L 15.359375 31.664062 C 15.546875 31.8125 15.773438 31.890625 16 31.890625 C 16.226562 31.890625 16.453125 31.8125 16.640625 31.664062 L 19.363281 29.433594 L 22.816406 30.140625 C 23.285156 30.238281 23.757812 29.988281 23.945312 29.546875 L 25.324219 26.304688 L 28.707031 25.328125 C 29.167969 25.195312 29.472656 24.757812 29.433594 24.277344 L 29.148438 20.765625 L 31.6875 18.328125 C 32.035156 17.996094 32.101562 17.464844 31.84375 17.058594 Z M 23.296875 12.203125 L 16.230469 22.789062 C 15.964844 23.183594 15.550781 23.449219 15.140625 23.449219 C 14.730469 23.449219 14.273438 23.21875 13.980469 22.925781 L 8.792969 17.65625 C 8.4375 17.296875 8.4375 16.710938 8.792969 16.351562 L 10.074219 15.050781 C 10.425781 14.695312 11 14.695312 11.351562 15.050781 L 14.730469 18.476562 L 20.296875 10.136719 C 20.574219 9.714844 21.144531 9.609375 21.554688 9.894531 L 23.054688 10.925781 C 23.46875 11.210938 23.578125 11.785156 23.296875 12.203125 Z M 23.296875 12.203125 "/>
</g>
</svg>
