<?xml version="1.0" encoding="UTF-8"?>
<svg xmlns="http://www.w3.org/2000/svg" xmlns:xlink="http://www.w3.org/1999/xlink" width="32pt" height="32pt" viewBox="0 0 32 32" version="1.1">
<g id="surface1">
<path style=" stroke:none;fill-rule:nonzero;fill:rgb(100%,100%,100%);fill-opacity:1;" d="M 16 19.199219 L 6.453125 16.257812 L 6.453125 21.167969 C 6.453125 23.433594 10.730469 25.273438 16.003906 25.273438 C 21.277344 25.273438 25.550781 23.433594 25.550781 21.167969 C 25.550781 21.148438 25.546875 21.128906 25.546875 21.113281 L 25.546875 16.257812 Z M 16 19.199219 "/>
<path style=" stroke:none;fill-rule:nonzero;fill:rgb(100%,100%,100%);fill-opacity:1;" d="M 0 12.882812 L 3.410156 14.101562 L 3.699219 13.480469 L 4.953125 13.371094 L 5.132812 13.558594 L 4.058594 13.8125 L 3.902344 14.277344 C 3.898438 14.277344 1.472656 19.351562 1.828125 21.835938 C 1.828125 21.835938 3.34375 22.742188 4.859375 21.835938 L 5.261719 15.046875 L 5.261719 14.480469 L 7.515625 13.972656 L 7.359375 14.363281 L 5.675781 14.910156 L 6.453125 15.191406 L 16 18.128906 L 25.546875 15.191406 L 32 12.882812 L 16 6.726562 Z M 0 12.882812 "/>
</g>
</svg>
