<?xml version="1.0" encoding="UTF-8"?>
<svg xmlns="http://www.w3.org/2000/svg" xmlns:xlink="http://www.w3.org/1999/xlink" width="32pt" height="32pt" viewBox="0 0 32 32" version="1.1">
<g id="surface1">
<path style=" stroke:none;fill-rule:nonzero;fill:rgb(75.294118%,22.352941%,16.862745%);fill-opacity:1;" d="M 25.855469 8.335938 C 25.707031 7.773438 25.605469 7.460938 25.605469 7.460938 C 25.445312 6.882812 25.03125 6.882812 24.417969 6.78125 L 21.101562 6.363281 C 20.6875 6.292969 20.6875 6.292969 20.523438 5.9375 C 19.980469 4.710938 19.8125 4 19.21875 4 L 12.78125 4 C 12.1875 4 12.023438 4.710938 11.480469 5.945312 C 11.320312 6.292969 11.320312 6.292969 10.90625 6.367188 L 7.582031 6.789062 C 6.976562 6.886719 6.539062 6.945312 6.375 7.523438 C 6.375 7.523438 6.300781 7.78125 6.144531 8.335938 C 5.945312 9.082031 5.863281 9 6.550781 9 L 25.449219 9 C 26.136719 9.007812 26.0625 9.082031 25.855469 8.335938 Z M 25.855469 8.335938 "/>
<path style=" stroke:none;fill-rule:nonzero;fill:rgb(75.294118%,22.352941%,16.862745%);fill-opacity:1;" d="M 23.710938 11 L 8.289062 11 C 7.25 11 7.199219 11.136719 7.261719 11.917969 L 8.429688 27.082031 C 8.53125 27.851562 8.605469 28.007812 9.523438 28.007812 L 22.476562 28.007812 C 23.394531 28.007812 23.46875 27.851562 23.570312 27.082031 L 24.738281 11.917969 C 24.800781 11.132812 24.75 11 23.710938 11 Z M 23.710938 11 "/>
</g>
</svg>
