<?xml version="1.0" encoding="UTF-8"?>
<svg xmlns="http://www.w3.org/2000/svg" xmlns:xlink="http://www.w3.org/1999/xlink" width="32pt" height="32pt" viewBox="0 0 32 32" version="1.1">
<g id="surface1">
<path style=" stroke:none;fill-rule:nonzero;fill:rgb(65.098039%,65.098039%,65.098039%);fill-opacity:1;" d="M 19.617188 5.800781 C 19.617188 7.824219 17.976562 9.464844 15.949219 9.464844 C 13.925781 9.464844 12.28125 7.824219 12.28125 5.800781 C 12.28125 3.773438 13.925781 2.132812 15.949219 2.132812 C 17.976562 2.132812 19.617188 3.773438 19.617188 5.800781 Z M 19.617188 5.800781 "/>
<path style=" stroke:none;fill-rule:nonzero;fill:rgb(65.098039%,65.098039%,65.098039%);fill-opacity:1;" d="M 19.714844 25.558594 C 19.714844 27.585938 18.074219 29.226562 16.050781 29.226562 C 14.023438 29.226562 12.382812 27.585938 12.382812 25.558594 C 12.382812 23.535156 14.023438 21.894531 16.050781 21.894531 C 18.074219 21.894531 19.714844 23.535156 19.714844 25.558594 Z M 19.714844 25.558594 "/>
<path style=" stroke:none;fill-rule:nonzero;fill:rgb(65.098039%,65.098039%,65.098039%);fill-opacity:1;" d="M 19.667969 15.839844 C 19.667969 17.863281 18.023438 19.507812 16 19.507812 C 13.976562 19.507812 12.332031 17.863281 12.332031 15.839844 C 12.332031 13.816406 13.976562 12.171875 16 12.171875 C 18.023438 12.171875 19.667969 13.816406 19.667969 15.839844 Z M 19.667969 15.839844 "/>
</g>
</svg>
