<?xml version="1.0" encoding="UTF-8"?>
<svg xmlns="http://www.w3.org/2000/svg" xmlns:xlink="http://www.w3.org/1999/xlink" width="32pt" height="32pt" viewBox="0 0 32 32" version="1.1">
<g id="surface1">
<path style=" stroke:none;fill-rule:nonzero;fill:rgb(100%,100%,100%);fill-opacity:1;" d="M 21.488281 11.414062 C 21.488281 14.5625 18.921875 17.121094 15.753906 17.121094 C 12.589844 17.121094 10.023438 14.5625 10.023438 11.414062 C 10.023438 8.261719 12.589844 5.707031 15.753906 5.707031 C 18.921875 5.707031 21.488281 8.261719 21.488281 11.414062 M 27.433594 11.414062 C 27.433594 5.109375 22.300781 0 15.96875 0 C 9.636719 0 4.503906 5.109375 4.503906 11.414062 C 4.503906 14.183594 5.496094 16.726562 7.148438 18.703125 L 15.980469 31.386719 L 24.941406 18.515625 C 25.261719 18.117188 25.554688 17.695312 25.824219 17.25 L 25.914062 17.121094 L 25.898438 17.121094 C 26.875 15.441406 27.433594 13.492188 27.433594 11.414062 "/>
</g>
</svg>
