<?xml version="1.0" encoding="UTF-8"?>
<svg xmlns="http://www.w3.org/2000/svg" xmlns:xlink="http://www.w3.org/1999/xlink" width="32pt" height="32pt" viewBox="0 0 32 32" version="1.1">
<g id="surface1">
<path style=" stroke:none;fill-rule:nonzero;fill:rgb(60.784314%,60.784314%,60.784314%);fill-opacity:1;" d="M 28.527344 22.550781 C 26.511719 20.847656 25.355469 18.355469 25.355469 15.71875 L 25.355469 12 C 25.355469 7.308594 21.867188 3.425781 17.355469 2.773438 L 17.355469 1.332031 C 17.355469 0.597656 16.757812 0 16.019531 0 C 15.285156 0 14.6875 0.597656 14.6875 1.332031 L 14.6875 2.773438 C 10.171875 3.425781 6.6875 7.308594 6.6875 12 L 6.6875 15.71875 C 6.6875 18.355469 5.53125 20.847656 3.503906 22.5625 C 2.984375 23.003906 2.6875 23.652344 2.6875 24.332031 C 2.6875 25.621094 3.734375 26.667969 5.019531 26.667969 L 27.019531 26.667969 C 28.308594 26.667969 29.355469 25.621094 29.355469 24.332031 C 29.355469 23.652344 29.058594 23.003906 28.527344 22.550781 Z M 28.527344 22.550781 "/>
<path style=" stroke:none;fill-rule:nonzero;fill:rgb(60.784314%,60.784314%,60.784314%);fill-opacity:1;" d="M 16.019531 32 C 18.4375 32 20.457031 30.277344 20.917969 28 L 11.121094 28 C 11.585938 30.277344 13.605469 32 16.019531 32 Z M 16.019531 32 "/>
</g>
</svg>
