<?xml version="1.0" encoding="UTF-8"?>
<svg xmlns="http://www.w3.org/2000/svg" xmlns:xlink="http://www.w3.org/1999/xlink" width="32pt" height="32pt" viewBox="0 0 32 32" version="1.1">
<g id="surface1">
<path style=" stroke:none;fill-rule:nonzero;fill:rgb(87.45098%,87.45098%,87.45098%);fill-opacity:1;" d="M 0.667969 5.945312 C 5.058594 9.667969 12.765625 16.210938 15.03125 18.25 C 15.335938 18.527344 15.660156 18.664062 16 18.664062 C 16.335938 18.664062 16.664062 18.527344 16.96875 18.253906 C 19.234375 16.210938 26.941406 9.667969 31.332031 5.945312 C 31.605469 5.714844 31.648438 5.308594 31.425781 5.027344 C 30.914062 4.375 30.152344 4 29.332031 4 L 2.667969 4 C 1.847656 4 1.085938 4.375 0.574219 5.027344 C 0.351562 5.308594 0.394531 5.714844 0.667969 5.945312 Z M 0.667969 5.945312 "/>
<path style=" stroke:none;fill-rule:nonzero;fill:rgb(87.45098%,87.45098%,87.45098%);fill-opacity:1;" d="M 31.613281 7.960938 C 31.378906 7.851562 31.097656 7.890625 30.902344 8.058594 C 26.03125 12.1875 19.816406 17.480469 17.859375 19.242188 C 16.761719 20.234375 15.238281 20.234375 14.136719 19.242188 C 12.054688 17.363281 5.074219 11.429688 1.097656 8.058594 C 0.898438 7.890625 0.621094 7.855469 0.386719 7.960938 C 0.152344 8.070312 0 8.308594 0 8.566406 L 0 25.332031 C 0 26.804688 1.195312 28 2.667969 28 L 29.332031 28 C 30.804688 28 32 26.804688 32 25.332031 L 32 8.566406 C 32 8.308594 31.847656 8.070312 31.613281 7.960938 Z M 31.613281 7.960938 "/>
</g>
</svg>
