<?xml version="1.0" encoding="UTF-8"?>
<svg xmlns="http://www.w3.org/2000/svg" xmlns:xlink="http://www.w3.org/1999/xlink" width="32pt" height="32pt" viewBox="0 0 32 32" version="1.1">
<g id="surface1">
<path style=" stroke:none;fill-rule:nonzero;fill:rgb(100%,100%,100%);fill-opacity:1;" d="M 13.539062 0 L 1.230469 0 C 0.550781 0 0 0.550781 0 1.230469 L 0 13.539062 C 0 14.21875 0.550781 14.769531 1.230469 14.769531 L 13.539062 14.769531 C 14.21875 14.769531 14.769531 14.21875 14.769531 13.539062 L 14.769531 1.230469 C 14.769531 0.550781 14.21875 0 13.539062 0 Z M 13.539062 0 "/>
<path style=" stroke:none;fill-rule:nonzero;fill:rgb(100%,100%,100%);fill-opacity:1;" d="M 30.769531 0 L 18.460938 0 C 17.78125 0 17.230469 0.550781 17.230469 1.230469 L 17.230469 13.539062 C 17.230469 14.21875 17.78125 14.769531 18.460938 14.769531 L 30.769531 14.769531 C 31.449219 14.769531 32 14.21875 32 13.539062 L 32 1.230469 C 32 0.550781 31.449219 0 30.769531 0 Z M 30.769531 0 "/>
<path style=" stroke:none;fill-rule:nonzero;fill:rgb(100%,100%,100%);fill-opacity:1;" d="M 13.539062 17.230469 L 1.230469 17.230469 C 0.550781 17.230469 0 17.78125 0 18.460938 L 0 30.769531 C 0 31.449219 0.550781 32 1.230469 32 L 13.539062 32 C 14.21875 32 14.769531 31.449219 14.769531 30.769531 L 14.769531 18.460938 C 14.769531 17.78125 14.21875 17.230469 13.539062 17.230469 Z M 13.539062 17.230469 "/>
<path style=" stroke:none;fill-rule:nonzero;fill:rgb(100%,100%,100%);fill-opacity:1;" d="M 30.769531 17.230469 L 18.460938 17.230469 C 17.78125 17.230469 17.230469 17.78125 17.230469 18.460938 L 17.230469 30.769531 C 17.230469 31.449219 17.78125 32 18.460938 32 L 30.769531 32 C 31.449219 32 32 31.449219 32 30.769531 L 32 18.460938 C 32 17.78125 31.449219 17.230469 30.769531 17.230469 Z M 30.769531 17.230469 "/>
</g>
</svg>
