<?xml version="1.0" encoding="UTF-8"?>
<svg xmlns="http://www.w3.org/2000/svg" xmlns:xlink="http://www.w3.org/1999/xlink" width="32pt" height="32pt" viewBox="0 0 32 32" version="1.1">
<g id="surface1">
<path style=" stroke:none;fill-rule:nonzero;fill:rgb(87.45098%,87.45098%,87.45098%);fill-opacity:1;" d="M 27.332031 12 L 25.332031 12 L 25.332031 9.332031 C 25.332031 4.1875 21.148438 0 16 0 C 10.851562 0 6.667969 4.1875 6.667969 9.332031 L 6.667969 12 L 4.667969 12 C 4.296875 12 4 12.296875 4 12.667969 L 4 29.332031 C 4 30.804688 5.195312 32 6.667969 32 L 25.332031 32 C 26.804688 32 28 30.804688 28 29.332031 L 28 12.667969 C 28 12.296875 27.703125 12 27.332031 12 Z M 17.996094 25.925781 C 18.015625 26.113281 17.957031 26.304688 17.832031 26.445312 C 17.703125 26.585938 17.523438 26.667969 17.332031 26.667969 L 14.667969 26.667969 C 14.476562 26.667969 14.296875 26.585938 14.171875 26.445312 C 14.042969 26.304688 13.984375 26.113281 14.003906 25.925781 L 14.425781 22.144531 C 13.742188 21.648438 13.332031 20.863281 13.332031 20 C 13.332031 18.53125 14.53125 17.332031 16 17.332031 C 17.472656 17.332031 18.667969 18.527344 18.667969 20 C 18.667969 20.863281 18.257812 21.648438 17.574219 22.144531 Z M 21.332031 12 L 10.667969 12 L 10.667969 9.332031 C 10.667969 6.390625 13.058594 4 16 4 C 18.941406 4 21.332031 6.390625 21.332031 9.332031 Z M 21.332031 12 "/>
</g>
</svg>
