<?xml version="1.0" encoding="UTF-8"?>
<svg xmlns="http://www.w3.org/2000/svg" xmlns:xlink="http://www.w3.org/1999/xlink" width="32pt" height="32pt" viewBox="0 0 32 32" version="1.1">
<g id="surface1">
<path style=" stroke:none;fill-rule:nonzero;fill:rgb(100%,100%,100%);fill-opacity:1;" d="M 7.472656 5.78125 L 7.472656 25.960938 L 0 25.960938 L 0 24.683594 Z M 7.472656 5.78125 "/>
<path style=" stroke:none;fill-rule:nonzero;fill:rgb(100%,100%,100%);fill-opacity:1;" d="M 18.328125 24.199219 L 18.328125 19.527344 L 27.648438 10.175781 L 27.648438 4.824219 L 23.371094 4.824219 L 23.371094 2.71875 L 21.457031 2.71875 L 21.457031 4.824219 L 19.347656 4.824219 L 19.347656 2.71875 L 17.433594 2.71875 L 17.433594 4.824219 L 15.324219 4.824219 L 15.324219 2.71875 L 13.410156 2.71875 L 13.410156 4.824219 L 9.386719 4.824219 L 9.386719 29.28125 L 27.648438 29.28125 L 27.648438 19.347656 L 22.8125 24.199219 Z M 12.898438 10.125 L 19.347656 10.125 L 19.347656 12.039062 L 12.898438 12.039062 Z M 16.984375 15.871094 L 12.898438 15.871094 L 12.898438 13.957031 L 16.984375 13.957031 Z M 16.984375 15.871094 "/>
<path style=" stroke:none;fill-rule:nonzero;fill:rgb(100%,100%,100%);fill-opacity:1;" d="M 27.285156 13.25 L 20.242188 20.316406 L 20.242188 22.285156 L 22.015625 22.285156 C 23.609375 20.6875 27.613281 16.671875 29.15625 15.121094 Z M 27.285156 13.25 "/>
<path style=" stroke:none;fill-rule:nonzero;fill:rgb(100%,100%,100%);fill-opacity:1;" d="M 32 12.269531 L 30.511719 13.765625 L 28.640625 11.894531 L 30.132812 10.398438 Z M 32 12.269531 "/>
</g>
</svg>
