<?xml version="1.0" encoding="UTF-8"?>
<svg xmlns="http://www.w3.org/2000/svg" xmlns:xlink="http://www.w3.org/1999/xlink" width="32pt" height="32pt" viewBox="0 0 32 32" version="1.1">
<g id="surface1">
<path style=" stroke:none;fill-rule:nonzero;fill:rgb(100%,100%,100%);fill-opacity:1;" d="M 15.773438 15.414062 C 17.890625 15.414062 19.722656 14.65625 21.222656 13.15625 C 22.71875 11.65625 23.480469 9.824219 23.480469 7.707031 C 23.480469 5.589844 22.71875 3.757812 21.222656 2.257812 C 19.722656 0.757812 17.890625 0 15.773438 0 C 13.652344 0 11.820312 0.757812 10.324219 2.257812 C 8.824219 3.757812 8.066406 5.589844 8.066406 7.707031 C 8.066406 9.824219 8.824219 11.660156 10.324219 13.15625 C 11.820312 14.65625 13.65625 15.414062 15.773438 15.414062 Z M 15.773438 15.414062 "/>
<path style=" stroke:none;fill-rule:nonzero;fill:rgb(100%,100%,100%);fill-opacity:1;" d="M 29.257812 24.605469 C 29.214844 23.984375 29.128906 23.300781 29 22.585938 C 28.867188 21.859375 28.703125 21.175781 28.5 20.550781 C 28.292969 19.90625 28.011719 19.265625 27.664062 18.65625 C 27.304688 18.019531 26.882812 17.46875 26.40625 17.011719 C 25.90625 16.539062 25.300781 16.15625 24.59375 15.875 C 23.894531 15.597656 23.117188 15.457031 22.285156 15.457031 C 21.957031 15.457031 21.640625 15.589844 21.03125 15.988281 C 20.65625 16.234375 20.214844 16.515625 19.726562 16.828125 C 19.308594 17.097656 18.738281 17.347656 18.039062 17.574219 C 17.355469 17.796875 16.660156 17.90625 15.972656 17.90625 C 15.289062 17.90625 14.59375 17.796875 13.90625 17.574219 C 13.207031 17.347656 12.640625 17.097656 12.21875 16.832031 C 11.734375 16.519531 11.296875 16.238281 10.914062 15.988281 C 10.304688 15.589844 9.988281 15.457031 9.664062 15.457031 C 8.832031 15.457031 8.054688 15.597656 7.351562 15.875 C 6.648438 16.15625 6.039062 16.535156 5.539062 17.011719 C 5.066406 17.46875 4.640625 18.019531 4.28125 18.65625 C 3.933594 19.265625 3.652344 19.90625 3.445312 20.550781 C 3.246094 21.175781 3.078125 21.859375 2.949219 22.585938 C 2.820312 23.300781 2.730469 23.980469 2.6875 24.605469 C 2.648438 25.21875 2.625 25.855469 2.625 26.496094 C 2.625 28.167969 3.15625 29.519531 4.203125 30.515625 C 5.238281 31.5 6.605469 32 8.269531 32 L 23.679688 32 C 25.34375 32 26.710938 31.5 27.746094 30.515625 C 28.792969 29.519531 29.324219 28.167969 29.324219 26.496094 C 29.324219 25.851562 29.300781 25.214844 29.257812 24.605469 Z M 29.257812 24.605469 "/>
</g>
</svg>
