<?xml version="1.0" encoding="UTF-8"?>
<svg xmlns="http://www.w3.org/2000/svg" xmlns:xlink="http://www.w3.org/1999/xlink" width="32pt" height="32pt" viewBox="0 0 32 32" version="1.1">
<g id="surface1">
<path style=" stroke:none;fill-rule:nonzero;fill:rgb(100%,100%,100%);fill-opacity:1;" d="M 30.976562 29.148438 L 23.363281 21.226562 C 25.320312 18.898438 26.394531 15.96875 26.394531 12.921875 C 26.394531 5.796875 20.597656 0 13.472656 0 C 6.347656 0 0.554688 5.796875 0.554688 12.921875 C 0.554688 20.042969 6.347656 25.839844 13.472656 25.839844 C 16.148438 25.839844 18.695312 25.035156 20.875 23.503906 L 28.546875 31.484375 C 28.871094 31.816406 29.300781 32 29.761719 32 C 30.199219 32 30.617188 31.832031 30.929688 31.53125 C 31.601562 30.886719 31.621094 29.816406 30.976562 29.148438 Z M 13.472656 3.371094 C 18.738281 3.371094 23.023438 7.652344 23.023438 12.921875 C 23.023438 18.1875 18.738281 22.46875 13.472656 22.46875 C 8.207031 22.46875 3.921875 18.1875 3.921875 12.921875 C 3.921875 7.652344 8.207031 3.371094 13.472656 3.371094 Z M 13.472656 3.371094 "/>
</g>
</svg>
