<?xml version="1.0" encoding="UTF-8"?>
<svg xmlns="http://www.w3.org/2000/svg" xmlns:xlink="http://www.w3.org/1999/xlink" width="32pt" height="32pt" viewBox="0 0 32 32" version="1.1">
<g id="surface1">
<path style=" stroke:none;fill-rule:nonzero;fill:rgb(100%,100%,100%);fill-opacity:1;" d="M 31.261719 20.207031 L 27.882812 17.558594 C 27.949219 17.046875 27.996094 16.527344 27.996094 16 C 27.996094 15.472656 27.949219 14.953125 27.882812 14.441406 L 31.269531 11.792969 C 31.570312 11.550781 31.660156 11.121094 31.460938 10.769531 L 28.261719 5.222656 C 28.058594 4.878906 27.644531 4.734375 27.285156 4.878906 L 23.300781 6.488281 C 22.476562 5.855469 21.570312 5.320312 20.597656 4.910156 L 19.996094 0.671875 C 19.925781 0.296875 19.597656 0 19.195312 0 L 12.796875 0 C 12.394531 0 12.066406 0.296875 12.003906 0.671875 L 11.402344 4.910156 C 10.429688 5.320312 9.523438 5.847656 8.699219 6.488281 L 4.714844 4.878906 C 4.355469 4.742188 3.941406 4.878906 3.738281 5.222656 L 0.539062 10.769531 C 0.339844 11.113281 0.429688 11.542969 0.730469 11.792969 L 4.109375 14.441406 C 4.042969 14.953125 3.996094 15.472656 3.996094 16 C 3.996094 16.527344 4.042969 17.046875 4.109375 17.558594 L 0.730469 20.207031 C 0.429688 20.449219 0.339844 20.878906 0.539062 21.230469 L 3.738281 26.777344 C 3.941406 27.121094 4.355469 27.265625 4.714844 27.121094 L 8.699219 25.511719 C 9.523438 26.144531 10.429688 26.679688 11.402344 27.089844 L 12.003906 31.328125 C 12.066406 31.703125 12.394531 32 12.796875 32 L 19.195312 32 C 19.597656 32 19.925781 31.703125 19.988281 31.328125 L 20.589844 27.089844 C 21.5625 26.679688 22.46875 26.152344 23.292969 25.511719 L 27.277344 27.121094 C 27.636719 27.257812 28.050781 27.121094 28.25 26.777344 L 31.453125 21.230469 C 31.652344 20.886719 31.5625 20.457031 31.261719 20.207031 Z M 15.996094 21.601562 C 12.898438 21.601562 10.394531 19.097656 10.394531 16 C 10.394531 12.902344 12.898438 10.398438 15.996094 10.398438 C 19.09375 10.398438 21.597656 12.902344 21.597656 16 C 21.597656 19.097656 19.09375 21.601562 15.996094 21.601562 Z M 15.996094 21.601562 "/>
</g>
</svg>
